<svg id="Layer_1" data-name="Layer 1" xmlns="http://www.w3.org/2000/svg" viewBox="0 0 362 112"><defs><style>.cls-1{fill:#fff;}.cls-1,.cls-2,.cls-3{stroke:#000;stroke-miterlimit:10;}.cls-2,.cls-3{fill:none;stroke-width:2px;}.cls-2{opacity:0.84;}.cls-3{opacity:0.3;}.cls-4{font-size:18px;font-family:MyriadPro-Regular, Myriad Pro;}</style></defs><title>logo</title><rect class="cls-1" x="1" y="1" width="360" height="110"/><text x="1" y="1"></text><path d="M29.14,54.14,25.36,64H24.6l9.72-25.34h.76L45.19,64H44.4l-3.92-9.86Zm11-.65c-3.21-8-5-12.82-5.51-14.07h0c-.26.93-2.74,7.48-5.26,14.07Z" transform="translate(1 1)"/><path d="M62.58,59.14c-1.08,3.78-3.53,5.29-6.8,5.29-4.68,0-7.56-3.6-7.56-9.36s3.17-9.39,7.74-9.39a6.51,6.51,0,0,1,6.62,5.43h-.76c-.72-2.7-2.44-4.78-5.94-4.78-4.6,0-6.91,4.1-6.91,8.74,0,5,2.27,8.71,6.84,8.71,3.1,0,5.08-1.65,6-4.64Z" transform="translate(1 1)"/><path d="M79.28,60a32.12,32.12,0,0,0,.18,4h-.72a33,33,0,0,1-.18-4c-1,3-3.24,4.43-6.51,4.43-4.32,0-6-2.55-6-5.11,0-3.85,3-5.43,8-5.43,2,0,3.24,0,4.53,0V51.4c0-2.59-1.08-5.07-5.32-5.07-4,0-5.33,2-5.58,4.71h-.72c.14-2.59,1.58-5.36,6.33-5.36,4.29,0,6,2.37,6,5.51Zm-.72-5.4c-1.22,0-2.7,0-4.57,0-4.86,0-7.2,1.55-7.2,4.76,0,2.77,2.2,4.46,5.29,4.46,4.18,0,6.48-2.56,6.48-7.45Z" transform="translate(1 1)"/><path d="M99,37V59.72c0,1.26,0,3.24,0,4.28h-.69c0-.61-.07-2.59-.07-4.5-.83,2.63-2.59,4.93-6.77,4.93-3.88,0-7.37-3.06-7.37-9.18,0-6.48,3.74-9.57,7.84-9.57a6.25,6.25,0,0,1,6.3,4.25V37ZM84.9,55.18c0,5.4,2.85,8.57,6.66,8.57,4.43,0,6.8-3,6.8-9.07,0-5.29-2.08-8.32-6.44-8.32S84.9,50.14,84.9,55.18Z" transform="translate(1 1)"/><path d="M104.59,54.86c0,5.58,2.77,8.85,6.66,8.85,3.53,0,5.22-1.91,6.27-4.25h.72a6.94,6.94,0,0,1-6.95,4.9c-5.51,0-7.42-4.93-7.42-9.36,0-5.72,3.1-9.32,7.49-9.32,5.54,0,7.27,4.86,7.27,8.28,0,.39,0,.5,0,.9ZM118,54.21c0-4.32-2.16-7.88-6.63-7.88-4,0-6.48,3.27-6.69,7.88Z" transform="translate(1 1)"/><path d="M123.6,50.18c0-1.48,0-3.24,0-4.07h.72c0,.61.08,2.77,0,4.21a6.14,6.14,0,0,1,6.19-4.64A5.23,5.23,0,0,1,136,49.93a6.2,6.2,0,0,1,6.19-4.25c3.2,0,5.86,1.94,5.86,6.62V64h-.75V52.37c0-3.2-1.51-6-5.18-6s-5.91,2.77-5.91,6.55V64h-.75V52.27c0-3.42-1.59-5.91-5-5.91s-6.08,2.88-6.08,7.74V64h-.72Z" transform="translate(1 1)"/><path d="M154.27,37H155v3.27h-.72Zm0,9.14H155V64h-.72Z" transform="translate(1 1)"/><path d="M173.1,60a32.12,32.12,0,0,0,.18,4h-.72a33,33,0,0,1-.18-4c-1,3-3.24,4.43-6.52,4.43-4.32,0-6-2.55-6-5.11,0-3.85,3-5.43,8-5.43,2,0,3.24,0,4.54,0V51.4c0-2.59-1.08-5.07-5.33-5.07-4,0-5.33,2-5.58,4.71h-.72c.15-2.59,1.59-5.36,6.34-5.36,4.28,0,6,2.37,6,5.51Zm-.72-5.4c-1.23,0-2.7,0-4.57,0-4.86,0-7.2,1.55-7.2,4.76,0,2.77,2.19,4.46,5.29,4.46,4.18,0,6.48-2.56,6.48-7.45Z" transform="translate(1 1)"/><path d="M179,38.66h8.46c4.39,0,7.59,2.45,7.59,6.8s-3,6.81-8,6.81h-7.34V64H179Zm.72,13h7.45c3.81,0,7.13-1.51,7.13-6.12,0-3.42-2.34-6.19-6.88-6.19h-7.7Z" transform="translate(1 1)"/><path d="M199.52,52.23c0-3.92,0-5,0-6.12h.68c.07.9.07,3,.07,5.18A7.85,7.85,0,0,1,207,45.68v.72c-3.67.14-6.77,3.81-6.77,8V64h-.72Z" transform="translate(1 1)"/><path d="M224.47,55c0,6-3.17,9.46-7.92,9.46s-7.74-3.63-7.74-9.39c0-6.19,3.49-9.5,7.92-9.5S224.47,49.06,224.47,55Zm-14.9,0c0,4.75,2.37,8.79,7,8.79s7.16-3.78,7.16-8.79c0-4.82-2.48-8.82-7.05-8.82S209.57,50.36,209.57,55.07Z" transform="translate(1 1)"/><path d="M249,64h-.65c0-.72,0-1.69-.07-5.94-1.44,4.32-4.43,6.3-9.11,6.3-7.48,0-10.79-5.9-10.79-12.78,0-7,3.6-13.28,11.12-13.28,5.58,0,8.6,2.91,9.47,6.84h-.73c-1-3.82-3.88-6.19-8.78-6.19-6.91,0-10.33,5.72-10.33,12.52,0,6.41,2.95,12.24,10.12,12.24,6.12,0,9-4.07,9-9.86V52h-9.07v-.65H249Z" transform="translate(1 1)"/><path d="M254.89,52.23c0-3.92,0-5,0-6.12h.69c.07.9.07,3,.07,5.18a7.85,7.85,0,0,1,6.77-5.61v.72c-3.67.14-6.77,3.81-6.77,8V64h-.72Z" transform="translate(1 1)"/><path d="M279.84,55c0,6-3.17,9.46-7.92,9.46s-7.74-3.63-7.74-9.39c0-6.19,3.49-9.5,7.92-9.5S279.84,49.06,279.84,55Zm-14.91,0c0,4.75,2.38,8.79,7,8.79s7.16-3.78,7.16-8.79c0-4.82-2.48-8.82-7.05-8.82S264.93,50.36,264.93,55.07Z" transform="translate(1 1)"/><path d="M283.94,46.11c3.1,10,5,15.62,5.33,17.17h0c.47-1.73,1.62-4.9,5.94-17.17h1c3.63,11,5.29,15.84,5.61,17h0c.43-1.59,1.76-5.33,5.68-17h.76L302.26,64h-.86c-2.31-6.87-5.26-15.62-5.69-17.17h0c-.47,1.58-3.17,9.29-6,17.17h-.86l-5.69-17.89Z" transform="translate(1 1)"/><path d="M310.91,46.11h3.34V40.17H315v5.94h4.47v.65H315V60.29c0,2,.4,3.39,2.63,3.39A4.47,4.47,0,0,0,319,63.5v.64a4.22,4.22,0,0,1-1.48.22c-2.37,0-3.31-1-3.31-4.25V46.76h-3.34Z" transform="translate(1 1)"/><path d="M324,37v13.5a6.71,6.71,0,0,1,6.81-4.79c2.87,0,6,1.62,6,6.8V64h-.75V52.55c0-3.56-1.8-6.19-5.4-6.19-4.39,0-6.7,3.31-6.7,7.67V64h-.72V37Z" transform="translate(1 1)"/><line class="cls-2" x1="62.67" y1="71.67" x2="329" y2="71.67"/><rect class="cls-3" x="1" y="1" width="360" height="110"/><text class="cls-4" transform="translate(339 41)">®</text></svg>